<svg xmlns="http://www.w3.org/2000/svg" width="1550.57" height="412.63"><defs><clipPath id="a"><path d="M0 309.47h1162.93V0H0z"/></clipPath></defs><g clip-path="url(#a)" transform="matrix(1.33333 0 0 -1.33333 0 412.63)"><path d="M791.85 17.28a76.7 76.7 0 0 0-26.27 17.65l8 12.44a59.17 59.17 0 0 1 22.07-16.42 69.43 69.43 0 0 1 28.22-5.81c17.38 0 31.03 5.3 40.96 15.91 9.91 10.6 14.87 25.77 14.87 45.49v11.42c-13.81-13.05-31.06-19.58-51.72-19.58-21.22 0-39 7-53.37 21-14.37 14.02-21.55 32.44-21.55 55.28 0 22.85 7.18 41.31 21.55 55.39 14.37 14.07 32.15 21.1 53.37 21.1 20.66 0 37.9-6.52 51.72-19.57l2.88 14.48h12.11V87.36c0-24.49-6.47-43.31-19.4-56.5-11.07-11.3-25.21-17.76-42.45-19.39h-17.5a82.92 82.92 0 0 0-23.49 5.81M229.9 219.78V83.47h14.99v109.94a55.44 55.44 0 0 0 21.24 17.44c8.69 4.15 18.3 6.22 28.84 6.22 17.25 0 30.45-4.45 39.62-13.35 9.17-8.92 13.75-21.12 13.75-36.62V83.48h14.99v82.81c0 11.15-1.89 21.01-5.65 29.58-3.76 8.57-8.82 15.34-15.19 20.3a68.53 68.53 0 0 1-21.14 11.21 79.53 79.53 0 0 1-24.74 3.78c-20.66 0-37.9-6.53-51.72-19.58L242 226.06zm177.56-10.35c-14.37-14.07-21.56-32.53-21.56-55.38 0-14.95 3.67-28.25 10.99-39.87 7.32-11.63 16.9-20.4 28.73-26.32 11.85-5.91 24.81-8.87 38.9-8.87 14.37 0 27.5 3.26 39.42 9.79a72.69 72.69 0 0 1 28.12 27.13l-16.83.4c-11.5-14.95-28.4-22.43-50.7-22.43-17.93 0-32.64 5.17-44.14 15.5-10.8 9.93-17.1 23.32-18.88 40.19h133.22c0 .4.03 1.12.1 2.14s.1 1.8.1 2.34c0 22.98-7.08 41.48-21.24 55.48-14.17 14.01-31.78 21.02-52.86 21.02-21.21 0-39-7.04-53.37-21.12m-6.16-47.22c1.65 17 7.9 30.16 18.78 39.47 10.89 9.32 24.47 13.98 40.75 13.98 16.29 0 29.73-4.66 40.34-13.98 10.6-9.31 16.73-22.47 18.37-39.47zM580.9 86.13c-3.28 2.72-5.74 5.4-7.39 8.06-1.64 2.65-2.87 6.05-3.69 10.2a76.54 76.54 0 0 0-1.44 9.68c-.13 2.32-.2 5.5-.2 9.6v89.74H553.4l1.84 9.99 13.7 3.42c.06 1.02.01 10.39 0 20.55-.02 11.52 0 17.12 0 17.12l14.22 6.04v-44.47h44.96v-12.65h-44.96v-76.9c0-2.31-.03-5.44-.1-9.38-.07-3.95-.1-6.77-.1-8.47 0-1.7.1-3.94.3-6.73.21-2.79.59-4.86 1.14-6.22.54-1.35 1.3-2.92 2.25-4.7a12.1 12.1 0 0 1 3.8-4.27 32.7 32.7 0 0 1 5.64-3.06c8.36-3.67 19.23-2.25 32.64 4.28l5.96-11.02c-5.89-3.8-12.87-6.39-20.94-7.74-8.08-1.37-14.99-1.16-20.74.6a35.24 35.24 0 0 0-12.1 6.33m93.19 212.34V83.48h-14.78V292.03zm35.65-215h15.62V226.2h-15.62zm15.22 215h-15.62v-20.54h15.62zm104.65-82.2c22.3 0 39-7.62 50.08-22.85v-77.3c-11.08-15.24-27.77-22.85-50.08-22.85-18.2 0-33.01 5.37-44.44 16.11-11.43 10.75-17.14 25.84-17.14 45.28 0 19.45 5.7 34.58 17.14 45.4 11.43 10.8 26.24 16.2 44.44 16.2m91.76-132.78h14.98v109.94a55.43 55.43 0 0 0 21.25 17.44c8.68 4.15 18.3 6.22 28.84 6.22 17.24 0 30.45-4.45 39.61-13.35 9.17-8.92 13.76-21.12 13.76-36.62V83.48h14.98v82.81c0 11.15-1.88 21.01-5.64 29.58-3.77 8.57-8.83 15.34-15.2 20.3a68.53 68.53 0 0 1-21.14 11.21 79.52 79.52 0 0 1-24.73 3.78c-20.66 0-37.9-6.53-51.73-19.58v80.26l-14.98 6.63zm179.4 2.65c-3.28 2.72-5.74 5.4-7.39 8.06-1.64 2.65-2.87 6.05-3.69 10.2a76.24 76.24 0 0 0-1.44 9.68c-.13 2.32-.2 5.5-.2 9.6v89.74h-14.78v12.65h14.77c.15 2.17.21 17 .21 44.47l14.89-6.06-.1-38.4h44.94V213.4h-44.95v-76.9c0-2.31-.03-5.44-.1-9.38-.07-3.95-.1-6.77-.1-8.47 0-1.7.1-3.94.3-6.73.21-2.79.59-4.86 1.14-6.22.54-1.35 1.3-2.92 2.25-4.7a12.1 12.1 0 0 1 3.8-4.27 32.67 32.67 0 0 1 5.65-3.06c8.34-3.67 19.22-2.25 32.63 4.28l5.95-11.02c-5.88-3.8-12.86-6.39-20.94-7.74-8.07-1.37-14.98-1.16-20.73.6a35.2 35.2 0 0 0-12.1 6.33" fill="#7473bd" fill-rule="evenodd"/><path d="M154.32 193.36l-104.3 25.68 3.83-65.5z" fill="#a6a2dc"/><path d="M11.55 136.76l8.57-54.06L91.8 131.9l-43.4 19.48zM218.47 218.8l-50.09-19.86 3.02-12.44z" fill="#565c98"/><path d="M171.4 186.5l-3.02 12.44-14.06-5.58-100.47-39.83-5.45-2.16 43.4-19.48 104.15-46.74z" fill="#7473bd"/></g></svg>