<svg xmlns="http://www.w3.org/2000/svg" height="612.33" width="612.33"><defs><clipPath id="a"><path d="M0 566.93h566.93V0H0z"/></clipPath><clipPath id="b"><path d="M0 566.93h566.93V0H0z"/></clipPath></defs><g clip-path="url(#a)" transform="matrix(1.33333 0 0 -1.33333 -71.79 684.12)"><path d="M512.96 283.46c0-126.74-102.75-229.5-229.5-229.5s-229.5 102.76-229.5 229.5c0 126.75 102.75 229.5 229.5 229.5s229.5-102.75 229.5-229.5" fill="#fff"/><path d="M512.96 283.46c0-126.74-102.75-229.5-229.5-229.5s-229.5 102.76-229.5 229.5c0 126.75 102.75 229.5 229.5 229.5s229.5-102.75 229.5-229.5z" fill="none" stroke="#231f20" stroke-width=".25" stroke-miterlimit="10"/></g><path d="M199.27 426.67h31.02v-30.2h-31.02z" fill="#20417c"/><path d="M266.63 426.67h31.02v-30.2h-31.02z" fill="#6fbd44"/><path d="M300.32 426.67h31v-30.2h-31z" fill="#e53a8d"/><path d="M331.33 363.6h-31.01v30.2h31z" fill="#f8e621"/><path d="M331.33 330.74h-31.01v30.2h31zM300.32 262.34h31v-30.2h-31z" fill="#754022"/><path d="M297.65 330.74h-31.02v30.2h31.02z" fill="#20417c"/><path d="M263.97 363.6h-31.02v30.2h31.02zM232.95 295.2h31.02v-30.19h-31.02z" fill="#754022"/><path d="M300.32 229.48h31v-30.2h-31z" fill="#f8e621"/><path d="M334 229.48h31.02v-30.2h-31.03z" fill="#e53a8d"/><path d="M398.7 166.42h-31.02v30.2h31.02z" fill="#6fbd44"/><path d="M230.29 297.87h-31.02v30.2h31.02z" fill="#20417c"/><path d="M263.97 297.87h-31.02v30.2h31.02z" fill="#6fbd44"/><path d="M165.59 426.67h31.01v-30.2H165.6z" fill="#754022"/><path d="M165.59 360.94h31.01v-30.2H165.6zM199.27 262.34h31.02v-30.2h-31.02z" fill="#f8e621"/><path d="M263.97 199.28h-31.02v30.2h31.02z" fill="#20417c"/><path d="M131.9 295.2h31.02v-30.19h-31.01z" fill="#e53a8d"/><path d="M300.32 163.75h31v-30.2h-31z" fill="#754022"/><path d="M435.04 163.75h31.02v-30.2h-31.02z" fill="#e53a8d"/><path d="M232.95 459.54h31.02v-30.2h-31.02z" fill="#f8e621"/><path d="M131.9 459.54h31.02v-30.2h-31.01z" fill="#6fbd44"/><path d="M266.63 492.4h31.02v-30.2h-31.02z" fill="#20417c"/><path d="M263.97 330.74h-31.02v30.2h31.02zM300.32 328.07h31.01v-30.2h-31.01z" fill="#e53a8d"/><path d="M230.29 363.6h-31.02v30.2h31.02z" fill="#6fbd44"/><path d="M334 459.54h31.02v-30.2h-31.03z" fill="#754022"/><g clip-path="url(#b)" transform="matrix(1.33333 0 0 -1.33333 -71.79 684.12)"><path d="M104.1 346.78a12.25 12.25 0 0 1-3.78 8.36 11.83 11.83 0 0 1-4.1 2.56 12.25 12.25 0 0 1-13.15-3.01 11.95 11.95 0 0 1-2.57-4.11L78 343.9l22.8-8.58 2.51 6.67c.6 1.57.86 3.16.79 4.78m-21.53 8.37a13 13 0 0 0 8.83 3.99c1.7.07 3.39-.2 5.05-.83 1.67-.62 3.1-1.53 4.33-2.7a13 13 0 0 0 4-8.81c.07-1.7-.2-3.38-.83-5.04l-2.73-7.28-.02-.03-24.09 9.06.02.03 2.73 7.28c.63 1.66 1.53 3.1 2.71 4.33"/><path d="M79.28 344.5l20.94-7.89 2.16 5.74a11.3 11.3 0 0 1-2.75 12.07 10.88 10.88 0 0 1-3.76 2.35 11.05 11.05 0 0 1-8.58-.27 11.33 11.33 0 0 1-5.85-6.27zm22.52-11.31l-.95.32-25.03 9.41 3.1 8.25a13.6 13.6 0 0 0 2.93 4.67 14 14 0 0 0 14.95 3.4 13.54 13.54 0 0 0 4.67-2.91 14.03 14.03 0 0 0 4.3-9.49c.09-1.82-.2-3.65-.88-5.44z" fill="#231f20"/><path d="M111 379.26l-16.92 1.48 10.35-13.47zm.77-.1l-6.85-12.5 5.71-7.48-.36-.66-17.14 22.28.36.67 28.02-2.43-.36-.66z"/><path d="M96.26 379.54l8.03-10.45 5.1 9.3zm14.15-22.84L91.94 380.7l.37.68.26.48.36.65 30.2-2.61-1.41-2.58-9.38.79-6.23-11.36 5.71-7.49z" fill="#231f20"/><path d="M110.34 406.98l-5.1-7.42 20.67-14.18-.39-.56L104.86 399l-5.07-7.39-.57.39 10.55 15.38z"/><path d="M125.78 383.43l-20.66 14.17-5.07-7.39-2.22 1.52 11.68 17.03 2.22-1.52-5.1-7.42 20.67-14.18z" fill="#231f20"/><path d="M134.41 411.6l-16.29 4.82 7.47-15.26zm.74-.24l-9.2-10.89 4.11-8.46-.49-.58-12.36 25.25.48.57 26.98-7.95-.48-.57z"/><path d="M120.02 414.82l5.8-11.85 6.84 8.11zm9.33-25.2l-13.33 27.2.5.6.35.41.48.57 29.08-8.57-1.9-2.25-9.04 2.64-8.36-9.9 4.11-8.46z" fill="#231f20"/><path d="M139.3 438.9l-6.48-6.25 17.42-18.02-.5-.47-17.41 18.01-6.45-6.23-.47.5 13.4 12.95z"/><path d="M149.72 412.74l-17.41 18.02-6.45-6.23-1.86 1.93 14.84 14.35 1.86-1.93-6.47-6.26 17.42-18.01z" fill="#231f20"/><path d="M145.62 444.47l7.18-9.42 9.02 6.87.41-.54-9.02-6.87 7.18-9.43 12.34 9.4.42-.54-12.89-9.81-15.6 20.47 12.9 9.82.4-.55z"/><path d="M160.07 422.73l-16.8 22.06 14.47 11.03 1.63-2.13-12.35-9.4 5.97-7.84 9.02 6.87 1.63-2.13-9.02-6.87 5.96-7.83 12.34 9.4 1.63-2.14z" fill="#231f20"/><path d="M172.65 450.17l-.84-3.31 5.75-9.69-.59-.35-13.14 22.13.59.35 6.89-11.6 4.71 18.5.87.51-4.05-15.88 19.4-4.94-.84-.5z"/><path d="M176.63 435.45l-14.17 23.85 2.3 1.37 6.18-10.39 4.22 16.57 3.3 1.96-4.4-17.26 20.76-5.29-3.27-1.94-18.18 4.63-.5-1.93 6.06-10.2z" fill="#231f20"/><path d="M205.07 480.21l10.27-23.6-.67-.29-27.37 14.83 9.78-22.48-.63-.27-10.27 23.6.63.27 27.4-14.86-9.8 22.52z"/><path d="M195.93 447.08l-11.06 25.44.63.27.48.21.88.39 25.27-13.71-9.04 20.77 2.5 1.08 11.06-25.44-.66-.28-.51-.23-.85-.37-25.26 13.68 9.03-20.74z" fill="#231f20"/><path d="M225.92 486.28a11.84 11.84 0 0 1-4.32-2.15 12.28 12.28 0 0 1-4.57-7.96c-.23-1.6-.12-3.22.32-4.84a11.83 11.83 0 0 1 2.15-4.32 12.31 12.31 0 0 1 7.94-4.57c1.6-.23 3.2-.13 4.82.3a11.8 11.8 0 0 1 4.33 2.16 12.28 12.28 0 0 1 4.57 7.94c.22 1.6.12 3.2-.32 4.82a12.22 12.22 0 0 1-10.1 8.93c-1.6.23-3.2.13-4.82-.31m6.52-24.2a12.94 12.94 0 0 0-13.48 4.5 12.49 12.49 0 0 0-2.27 4.57 12.92 12.92 0 0 0 4.49 13.51 12.51 12.51 0 0 0 4.56 2.28c1.72.46 3.41.57 5.1.33a12.99 12.99 0 0 0 8.38-4.84 12.67 12.67 0 0 0 2.28-4.59 12.95 12.95 0 0 0-4.5-13.48 12.5 12.5 0 0 0-4.56-2.27"/><path d="M229.09 485.7a11.23 11.23 0 0 1-11.07-9.68c-.2-1.46-.1-2.95.3-4.43.4-1.48 1.06-2.82 1.96-3.96a11.37 11.37 0 0 1 7.3-4.2c1.46-.21 2.94-.12 4.42.28 1.49.4 2.82 1.07 3.96 1.97a11.35 11.35 0 0 1 4.2 7.3c.21 1.46.12 2.94-.28 4.42a11.28 11.28 0 0 1-10.79 8.3m0-25.07a14 14 0 0 0-10.91 5.33 13.56 13.56 0 0 0-2.46 4.93 13.98 13.98 0 0 0 4.83 14.56 13.54 13.54 0 0 0 4.93 2.45c1.84.5 3.69.62 5.5.36a14.02 14.02 0 0 0 11.5-10.16 14.05 14.05 0 0 0-4.84-14.52 13.87 13.87 0 0 0-8.54-2.95" fill="#231f20"/><path d="M265.89 469.06l.08-.68-16.18-2.05-3.23 25.54.68.09 3.15-24.86z"/><path d="M248.93 465.22l-3.49 27.52 2.66.33 3.15-24.85 15.5 1.96.34-2.66z" fill="#231f20"/><path d="M277.1 494.05a11.84 11.84 0 0 1-4.71-1.05 12.31 12.31 0 0 1-6.34-6.63c-.6-1.5-.89-3.1-.85-4.77.03-1.68.38-3.26 1.05-4.72a12.28 12.28 0 0 1 6.61-6.34c1.5-.6 3.08-.89 4.76-.85 1.67.03 3.25.38 4.7 1.05a12.3 12.3 0 0 1 6.35 6.61c.6 1.5.89 3.08.86 4.76a12.25 12.25 0 0 1-7.67 11.1c-1.5.6-3.08.88-4.76.84m.53-25.05a12.94 12.94 0 0 0-12 7.6 12.5 12.5 0 0 0-1.12 4.98 12.9 12.9 0 0 0 7.6 12.04c1.54.7 3.2 1.08 4.98 1.12a12.5 12.5 0 0 0 5.02-.9 12.97 12.97 0 0 0 6.99-6.72c.7-1.56 1.07-3.22 1.1-5 .05-1.77-.25-3.45-.9-5.02a13 13 0 0 0-6.69-6.98 12.5 12.5 0 0 0-4.98-1.12"/><path d="M277.38 493.06h-.26a10.9 10.9 0 0 1-4.31-.97 11.29 11.29 0 0 1-6.61-10.47c.03-1.54.35-3 .96-4.32a11.35 11.35 0 0 1 6.08-5.83c1.28-.52 2.66-.79 4.1-.79h.25c1.54.04 3 .36 4.32.97a11.36 11.36 0 0 1 5.84 6.08c.55 1.36.8 2.82.78 4.36a11.3 11.3 0 0 1-7.04 10.19c-1.3.51-2.67.78-4.11.78m-.04-25.06c-1.8 0-3.51.33-5.11.98a14 14 0 0 0-7.52 7.2 13.56 13.56 0 0 0-1.2 5.38 13.96 13.96 0 0 0 8.18 12.97c1.67.76 3.48 1.17 5.38 1.2l.32.01c1.78 0 3.5-.33 5.1-.98a14 14 0 0 0 8.72-12.62c.04-1.9-.29-3.72-.98-5.42a14.04 14.04 0 0 0-7.2-7.51 13.57 13.57 0 0 0-5.38-1.2z" fill="#231f20"/><path d="M322.5 476.07a12.21 12.21 0 0 0-2.12-3.93 13.06 13.06 0 0 0-7.32-4.55c-1.47-.34-2.99-.4-4.55-.17-1.76.25-3.37.82-4.82 1.7a12.97 12.97 0 0 0-5.8 7.74 12.49 12.49 0 0 0-.29 5.1 12.92 12.92 0 0 0 9.45 10.65c1.64.44 3.34.54 5.1.29 1.56-.22 3-.7 4.32-1.44a13.02 13.02 0 0 0 6.7-10.79l-.69.1a12.3 12.3 0 0 1-10.44 11.45c-1.66.24-3.26.15-4.81-.27a12.3 12.3 0 0 1-7.34-5.52 11.96 11.96 0 0 1-1.61-4.57c-.24-1.66-.15-3.27.27-4.82a12.27 12.27 0 0 1 5.5-7.33 11.85 11.85 0 0 1 4.55-1.62 12.03 12.03 0 0 1 10.87 4.02c.9 1 1.6 2.14 2.12 3.4l-10.98 1.57.1.68z"/><path d="M310.36 466.28a14.1 14.1 0 0 0-7.19 1.99 14.02 14.02 0 0 0-6.24 8.33 13.55 13.55 0 0 0-.32 5.5 13.96 13.96 0 0 0 10.18 11.48c1.76.47 3.61.58 5.5.3 1.68-.23 3.25-.75 4.66-1.54a14.1 14.1 0 0 0 6.19-6.95c.62-1.48.97-3.06 1.02-4.68l.04-1.2-2.68.39-.03.82a11.35 11.35 0 0 1-5.88 9.28 10.83 10.83 0 0 1-3.7 1.23c-1.53.22-3 .14-4.42-.25a11.3 11.3 0 0 1-8.22-9.26c-.22-1.52-.14-3 .25-4.42a11.32 11.32 0 0 1 5.05-6.74 11.11 11.11 0 0 1 15.52 4.16l-10.6 1.51.37 2.66 13.97-2-.37-1.13c-.51-1.56-1.29-3-2.3-4.25a14.12 14.12 0 0 0-7.88-4.9c-.95-.22-1.93-.33-2.92-.33" fill="#231f20"/><path d="M340.99 473.84c.83-.4 1.56-.88 2.2-1.47a7.3 7.3 0 0 0 1.53-1.94 6.6 6.6 0 0 0 .73-2.26 5.7 5.7 0 0 0-1.48-4.66 6.45 6.45 0 0 0-2.21-1.54 8.95 8.95 0 0 0-5.92-.28l-2.28.66a8.9 8.9 0 0 0-4.8 3.4c-.53.77-.88 1.6-1.06 2.49-.18.89-.14 1.77.11 2.64l.04.14.8-.23-.04-.14a4.82 4.82 0 0 1-.1-2.35c.15-.78.47-1.52.94-2.22a7.92 7.92 0 0 1 4.3-3.07l2.28-.66a8.04 8.04 0 0 1 2.79-.33c.91.06 1.75.26 2.51.6.76.34 1.42.8 1.97 1.38a4.95 4.95 0 0 1 1.28 4.4 6.2 6.2 0 0 1-.92 2.24 7.22 7.22 0 0 1-1.8 1.86c-.74.54-1.58.94-2.52 1.22-.98.23-1.79.49-2.42.76-.63.27-1.14.52-1.52.76-.44.25-.8.5-1.08.76a10.04 10.04 0 0 0-2.11 3.24 5.28 5.28 0 0 0-.1 3.44c.25.88.7 1.64 1.32 2.3a6.86 6.86 0 0 0 2.23 1.54c.85.38 1.8.6 2.8.67a8.89 8.89 0 0 0 3.08-.35l.7-.2a9.08 9.08 0 0 0 2.72-1.3 8.28 8.28 0 0 0 2-1.97c.51-.74.88-1.54 1.09-2.4.21-.86.22-1.71.02-2.56l-.8.23a4.9 4.9 0 0 1-.02 2.28 6.37 6.37 0 0 1-.97 2.14 7.15 7.15 0 0 1-1.78 1.75c-.73.52-1.54.9-2.44 1.16l-.69.2c-.95.28-1.87.38-2.77.32a7.51 7.51 0 0 1-2.52-.6 6.05 6.05 0 0 1-2-1.38 4.93 4.93 0 0 1-1.28-4.41c.16-.78.47-1.52.94-2.22a7.91 7.91 0 0 1 4.3-3.07l1.11-.33.98-.3c.33-.1.62-.22.86-.34"/><path d="M338.4 460.3c-.93 0-1.88.15-2.84.43l-2.28.66a9.92 9.92 0 0 0-5.35 3.8c-.6.87-1 1.83-1.21 2.85a6.48 6.48 0 0 0 .13 3.12l.33 1.1 2.71-.8-.32-1.1a3.79 3.79 0 0 1-.08-1.86c.13-.65.4-1.28.79-1.86.4-.6.93-1.15 1.56-1.61a6.95 6.95 0 0 1 2.2-1.06l2.27-.66a7 7 0 0 1 2.44-.29c.8.05 1.52.22 2.17.52.64.28 1.2.67 1.66 1.15a3.92 3.92 0 0 1 1.02 3.52 5.2 5.2 0 0 1-.77 1.88c-.4.6-.91 1.13-1.55 1.6-.65.47-1.4.83-2.22 1.07-.98.23-1.85.5-2.53.8a12.24 12.24 0 0 0-2.9 1.71c-1.11 1.2-1.9 2.4-2.35 3.62a6.29 6.29 0 0 0-.13 4.07 6.5 6.5 0 0 0 1.56 2.7 7.86 7.86 0 0 0 2.55 1.78c.96.42 2.01.67 3.14.74a9.96 9.96 0 0 0 3.42-.38l.7-.2a10.1 10.1 0 0 0 3.02-1.45 9.29 9.29 0 0 0 2.23-2.2 8.03 8.03 0 0 0 1.25-2.74c.25-1 .26-2.02.03-3.02l-.24-1.03-2.71.79.2.91c.14.6.13 1.2-.02 1.82a5.4 5.4 0 0 1-.82 1.8c-.4.57-.91 1.08-1.53 1.52a7.2 7.2 0 0 1-2.15 1.01l-.69.2a6.55 6.55 0 0 1-4.61-.23 5.1 5.1 0 0 1-1.67-1.16 3.93 3.93 0 0 1-1.03-3.52c.13-.65.4-1.28.8-1.87a6.92 6.92 0 0 1 3.76-2.67l1.1-.32 1-.3a9.8 9.8 0 0 0 3.43-2.02c.72-.67 1.3-1.41 1.74-2.22a7.6 7.6 0 0 0 .83-2.6 6.7 6.7 0 0 0-1.74-5.48 7.48 7.48 0 0 0-2.55-1.77 9.53 9.53 0 0 0-3.75-.74" fill="#231f20"/><path d="M358.38 480.84l-4.59-10.92 10.46-4.4-.27-.63-10.45 4.4-4.6-10.92 14.31-6.01-.26-.63-14.94 6.28 9.98 23.72 14.93-6.28-.26-.63z"/><path d="M363.5 450.42l-16.77 7.05 10.75 25.57 16.78-7.05-1.04-2.47-14.3 6-3.82-9.06 10.46-4.4-1.05-2.47-10.45 4.4-3.81-9.08 14.3-6.02z" fill="#231f20"/><path d="M376.75 460.28l-3.29-.93-5.51-9.82-.6.33 12.6 22.45.6-.34-6.61-11.77 18.38 5.17.88-.5-15.78-4.43 5.4-19.26-.84.47z"/><path d="M384.44 439.13l-3.31 1.85-5.08 18.06-1.92-.54-5.8-10.33-2.34 1.31 13.58 24.2 2.34-1.32-5.92-10.54 16.46 4.62 3.34-1.88-17.14-4.81z" fill="#231f20"/><path d="M416.88 447.95l-7.26 5.32-14.8-20.2-.56.4 14.8 20.2-7.22 5.3.4.56 15.04-11.02z"/><path d="M395.03 431.66l-2.17 1.59 14.81 20.21-7.23 5.3 1.59 2.16 16.65-12.2-1.58-2.16-7.26 5.32z" fill="#231f20"/><path d="M426.48 439.76l-16.3-18.12 3.55-3.2-.45-.5-7.63 6.86.46.5 3.56-3.2 16.3 18.12-3.56 3.2.46.5 7.63-6.86-.46-.5z"/><path d="M413.35 416.52l-9.11 8.2 1.8 2 3.55-3.2 14.97 16.62-3.56 3.2 1.8 2 9.1-8.2-1.79-2-3.56 3.2-14.96-16.62 3.56-3.2z" fill="#231f20"/><path d="M442.21 424.27a11.84 11.84 0 0 1-3.87 2.88 12.3 12.3 0 0 1-9.17.47 11.96 11.96 0 0 1-4.17-2.47 12.27 12.27 0 0 1-3.36-13.03 11.8 11.8 0 0 1 2.46-4.16 12.26 12.26 0 0 1 13.03-3.36c1.52.52 2.91 1.34 4.16 2.46a12.26 12.26 0 0 1 3.38 13.05 11.84 11.84 0 0 1-2.46 4.16M423.6 407.5a12.95 12.95 0 0 0-2.1 14.05 12.5 12.5 0 0 0 3.04 4.1 12.91 12.91 0 0 0 14.08 2.12 12.5 12.5 0 0 0 4.1-3.04 12.53 12.53 0 0 0 2.6-4.4 12.99 12.99 0 0 0-.52-9.67 12.65 12.65 0 0 0-3.05-4.1 12.52 12.52 0 0 0-4.4-2.6 12.97 12.97 0 0 0-9.66.5 12.5 12.5 0 0 0-4.1 3.04"/><path d="M433.17 427.3a11.35 11.35 0 0 1-7.5-2.9 10.88 10.88 0 0 1-2.64-3.55 11.34 11.34 0 0 1-.44-8.41 10.9 10.9 0 0 1 2.26-3.81 10.89 10.89 0 0 1 3.55-2.64 11.33 11.33 0 0 1 8.41-.44c1.39.47 2.67 1.23 3.8 2.25a11.3 11.3 0 0 1 3.1 11.99 10.9 10.9 0 0 1-2.24 3.81 10.92 10.92 0 0 1-3.55 2.64 11.35 11.35 0 0 1-4.75 1.05m-.02-25.04a13.62 13.62 0 0 0-5.87 1.3 13.56 13.56 0 0 0-4.43 3.28 13.53 13.53 0 0 0-2.8 4.74 14 14 0 0 0 .54 10.4 13.56 13.56 0 0 0 3.28 4.43 14 14 0 0 0 15.17 2.28 13.56 13.56 0 0 0 4.42-3.28 13.6 13.6 0 0 0 2.8-4.74c.6-1.72.84-3.49.75-5.26-.1-1.76-.53-3.5-1.3-5.16a13.73 13.73 0 0 0-3.3-4.43 13.57 13.57 0 0 0-4.74-2.8c-1.48-.5-3-.76-4.52-.76" fill="#231f20"/><path d="M468.24 390.91l-21.48-14.18-.4.6 9.9 29.52-20.47-13.5-.38.57 21.49 14.18.37-.57-9.92-29.54 20.5 13.52z"/><path d="M446.48 375.35l-.4.6-.3.46-.52.78 9.12 27.23-18.87-12.46-1.48 2.24 23.15 15.28.38-.57.29-.44.53-.8-9.15-27.25 18.9 12.48 1.5-2.27z" fill="#231f20"/><path d="M471.99 383.12l-10.6-5.27 5.04-10.16-.61-.3-5.05 10.15-10.6-5.27 6.9-13.9-.6-.3-7.22 14.5 23.05 11.47 7.21-14.51-.61-.3z"/><path d="M456.01 356.73l-8.1 16.3 24.84 12.35 8.1-16.3-2.4-1.2-6.91 13.9-8.81-4.38 5.04-10.16-2.4-1.2-5.05 10.16-8.81-4.38 6.9-13.9z" fill="#231f20"/><path d="M489.82 342.93l-24.26-8.6-.24.67 16.7 26.29-23.11-8.2-.23.64 24.26 8.6.23-.64-16.73-26.29 23.14 8.21z"/><path d="M464.96 333.05l-.24.68-.2.52-.3.88 15.4 24.24-21.32-7.56-.9 2.53 26.14 9.27.23-.64.18-.5.32-.9-15.42-24.26 21.34 7.58.9-2.57z" fill="#231f20"/><path d="M89.07 199.3l-.63-.26-6.02 15.16 23.92 9.5.26-.64-23.3-9.25z"/><path d="M87.88 197.74l-6.76 17.02 25.78 10.23 1-2.5-23.3-9.24 5.77-14.52z" fill="#231f20"/><path d="M115.96 199.48l-21.71-11.07 2.17-4.27-.6-.3-4.67 9.13.61.32 2.18-4.27 21.7 11.07-2.17 4.27.61.3 4.66-9.13-.6-.31z"/><path d="M95.38 182.49L89.8 193.4l2.39 1.22 2.17-4.27 19.93 10.17-2.17 4.26 2.39 1.22 5.57-10.92-2.4-1.22-2.17 4.27-19.93-10.17 2.18-4.26z" fill="#231f20"/><path d="M131.75 174.3l-21.56-14.05-.4.6 10.06 29.47-20.54-13.4-.37.58 21.56 14.06.38-.57-10.1-29.49 20.57 13.41z"/><path d="M109.9 158.87l-.4.6-.3.47-.51.78 9.28 27.17-18.95-12.34-1.46 2.24 23.23 15.15.38-.57.29-.44.52-.8-9.3-27.2 18.97 12.37 1.48-2.28z" fill="#231f20"/><path d="M127.13 160.48l-3.4.27-8.58-7.3-.45.52 19.6 16.68.45-.52-10.28-8.75 19.03-1.53.65-.77-16.34 1.32-1.6-19.95-.64.74z"/><path d="M127 137.97l-2.46 2.9 1.51 18.7-1.99.15-9.03-7.68-1.74 2.04 21.13 17.98 1.74-2.04-9.2-7.84 17.03-1.37 2.49-2.92-17.75 1.43z" fill="#231f20"/><path d="M161.95 146.3a.87.87 0 0 1-.66-.3.93.93 0 0 1-.24-.7c.02-.28.13-.5.33-.68.2-.17.43-.25.7-.23.27.01.5.12.67.32.17.2.25.42.22.69a.96.96 0 0 1-.33.65.96.96 0 0 1-.69.25m-3.97 3.51a.87.87 0 0 1-.65-.3.93.93 0 0 1-.24-.71c.02-.27.12-.5.32-.67.2-.18.43-.26.7-.24.28.02.5.13.67.32.18.2.25.43.23.7a.97.97 0 0 1-.33.65.97.97 0 0 1-.7.25m-4.34-2.93a12.3 12.3 0 0 1-9.16-.58 11.94 11.94 0 0 1-3.86-2.92 12.27 12.27 0 0 1-1.86-13.33 11.84 11.84 0 0 1 2.91-3.85 11.83 11.83 0 0 1 4.18-2.42 12.3 12.3 0 0 1 9.14.56c1.46.68 2.74 1.65 3.86 2.91a12.25 12.25 0 0 1 1.88 13.35 11.83 11.83 0 0 1-2.91 3.86 11.83 11.83 0 0 1-4.18 2.42m-15.5-17.12a12.97 12.97 0 0 0-.6 9.65 12.51 12.51 0 0 0 2.56 4.42 12.9 12.9 0 0 0 13.75 3.7 12.53 12.53 0 0 0 4.42-2.56 12.53 12.53 0 0 0 3.08-4.07 12.96 12.96 0 0 0-6.06-17.18 12.95 12.95 0 0 0-9.66-.6 12.5 12.5 0 0 0-4.41 2.57 12.53 12.53 0 0 0-3.08 4.07"/><path d="M158.05 148.9v-1zm0-2a1.94 1.94 0 0 0-1.95 1.85 1.93 1.93 0 0 0 1.86 2.06 2 2 0 0 0 2.05-1.8 1.87 1.87 0 0 0-.48-1.46c-.35-.4-.82-.63-1.36-.66zm3.96-1.52v-1zm-12.25 1.13c-.23 0-.46 0-.69-.02a11.32 11.32 0 0 1-7.7-3.78 10.9 10.9 0 0 1-2.22-3.82 11.33 11.33 0 0 1 .51-8.41 10.88 10.88 0 0 1 2.67-3.53 10.9 10.9 0 0 1 3.83-2.22c1.4-.46 2.83-.65 4.25-.56 1.43.09 2.83.45 4.16 1.07a11.1 11.1 0 0 1 6.33 10.78 11.38 11.38 0 0 1-1.07 4.16 10.9 10.9 0 0 1-2.68 3.53 10.88 10.88 0 0 1-3.82 2.22c-1.18.38-2.38.58-3.57.58m-.03-25.05c-1.47 0-2.96.24-4.41.72-1.74.57-3.34 1.5-4.77 2.76a13.59 13.59 0 0 0-3.32 4.4 14.02 14.02 0 0 0-.64 10.39c.57 1.73 1.5 3.34 2.77 4.76a13.94 13.94 0 0 0 14.81 3.99 13.57 13.57 0 0 0 6.31-4.36c-.25.31-.4.7-.42 1.12a1.93 1.93 0 0 0 1.86 2.06 2 2 0 0 0 2.05-1.8 1.93 1.93 0 0 0-1.83-2.1l-.13-.02a1.93 1.93 0 0 0-1.5.71 14.06 14.06 0 0 0 3.08-7.9 14.02 14.02 0 0 0-3.48-10.05 13.58 13.58 0 0 0-4.4-3.32 14 14 0 0 0-5.98-1.36" fill="#231f20"/><path d="M165.02 123.18l7.99-5.47a5.6 5.6 0 0 1 4.4-.9c.74.14 1.44.42 2.1.83a5.73 5.73 0 0 1 2.6 3.79 5.88 5.88 0 0 1-2.4 6.05l-8 5.47zm-8.03-10.52l14.54 21.24 8.56-5.86a6.42 6.42 0 0 0 2.75-4.23c.14-.83.13-1.68-.04-2.54a6.44 6.44 0 0 0-1.02-2.41 6.65 6.65 0 0 0-6.74-2.74c-.86.16-1.67.5-2.42 1.02l-7.99 5.47-7.08-10.33z"/><path d="M166.4 123.44l7.17-4.9a4.63 4.63 0 0 1 3.64-.75c.63.12 1.22.36 1.77.7a4.76 4.76 0 0 1 2.14 3.13 4.91 4.91 0 0 1-.65 3.65c-.34.55-.77 1-1.33 1.38l-7.17 4.9zm-8.58-12.55l-2.22 1.5 15.67 22.9 9.38-6.42a7.48 7.48 0 0 0 3.17-4.89c.17-.94.15-1.92-.03-2.9a7.48 7.48 0 0 0-3.36-4.9 7.7 7.7 0 0 0-5.58-1.04c-1 .19-1.93.59-2.8 1.18l-7.16 4.9z" fill="#231f20"/><path d="M192.23 119.82l-11.72-21.37 4.2-2.3-.33-.6-9 4.93.33.6 4.2-2.3 11.72 21.37-4.2 2.3.33.6 9-4.94-.33-.6z"/><path d="M184.77 94.19l-10.75 5.9 1.3 2.35 4.2-2.3 10.76 19.61-4.2 2.3 1.29 2.36 10.75-5.9-1.3-2.35-4.2 2.3-10.75-19.61 4.2-2.3z" fill="#231f20"/><path d="M219.44 107.88l-9.93-23.75-.67.28-8.24 30.02-9.46-22.62-.63.27 9.93 23.74.63-.26 8.23-30.06 9.48 22.65z"/><path d="M208.86 83.32l-.85.35-7.6 27.7-8.73-20.87-2.48 1.04 10.7 25.59.64-.26.48-.2.89-.38 7.59-27.72 8.74 20.9 2.5-1.06-10.7-25.59-.66.28z" fill="#231f20"/><path d="M244.67 85.02a12.18 12.18 0 0 0-2.52-3.69 13.1 13.1 0 0 0-7.77-3.76c-1.49-.18-3-.07-4.54.32a12.49 12.49 0 0 0-4.6 2.2 12.97 12.97 0 0 0-4.96 8.3 12.5 12.5 0 0 0 .24 5.1 12.92 12.92 0 0 0 10.52 9.6c1.68.27 3.38.19 5.1-.25a12.36 12.36 0 0 0 4.15-1.88 12.98 12.98 0 0 0 5.52-11.44l-.66.17a12.26 12.26 0 0 1-9.18 12.49c-1.63.41-3.24.49-4.82.23a12.33 12.33 0 0 1-7.88-4.71 12 12 0 0 1-2.08-4.38 11.85 11.85 0 0 1-.24-4.82 12.3 12.3 0 0 1 4.7-7.87 11.84 11.84 0 0 1 4.36-2.08 12.07 12.07 0 0 1 11.22 2.85c1 .9 1.82 1.96 2.47 3.16l-10.75 2.71.17.67z"/><path d="M232.96 76.49c-1.11 0-2.24.14-3.37.43a13.55 13.55 0 0 0-4.96 2.37 14.03 14.03 0 0 0-5.34 8.95c-.3 1.8-.2 3.65.26 5.5a13.71 13.71 0 0 0 6.34 8.54c1.51.9 3.2 1.5 4.99 1.8 1.8.29 3.66.2 5.5-.27 1.65-.41 3.16-1.1 4.48-2.03a14.08 14.08 0 0 0 5.95-12.33l-.09-1.19-2.62.66.05.83a11.3 11.3 0 0 1-8.42 11.46c-1.5.38-2.98.45-4.42.22a11.31 11.31 0 0 1-9.15-8.35 10.91 10.91 0 0 1-.22-4.42 11.36 11.36 0 0 1 4.32-7.23 10.9 10.9 0 0 1 4-1.91 11.08 11.08 0 0 1 10.3 2.61c.59.54 1.11 1.14 1.57 1.8l-10.4 2.62.66 2.6 13.68-3.45-.48-1.09c-.68-1.5-1.6-2.85-2.74-3.98a14.14 14.14 0 0 0-9.9-4.14" fill="#231f20"/><path d="M263.35 85.15c.9-.24 1.7-.6 2.44-1.06a7.3 7.3 0 0 0 1.85-1.64c.5-.63.87-1.33 1.11-2.09a5.7 5.7 0 0 0-.63-4.86 6.47 6.47 0 0 0-1.9-1.9 8.98 8.98 0 0 0-5.78-1.33l-2.36.26a8.87 8.87 0 0 0-5.33 2.5 6.6 6.6 0 0 0-1.48 2.25 5.48 5.48 0 0 0-.36 2.62l.02.15.82-.09-.01-.14c-.09-.81.02-1.6.31-2.33.3-.75.74-1.42 1.32-2.03a7.9 7.9 0 0 1 4.78-2.26l2.36-.24c.98-.1 1.91-.05 2.8.17a7.2 7.2 0 0 1 2.37 1.04 6.24 6.24 0 0 1 1.7 1.7 4.95 4.95 0 0 1 .48 4.56 6.2 6.2 0 0 1-1.3 2.04c-.58.6-1.28 1.11-2.1 1.51a8.1 8.1 0 0 1-2.7.76c-1.01.05-1.85.16-2.52.31a11.56 11.56 0 0 0-2.83 1.05c-1.16.86-2.04 1.8-2.65 2.8-.6 1.01-.84 2.14-.71 3.38.1.9.4 1.73.9 2.5.5.75 1.13 1.38 1.91 1.9a8.84 8.84 0 0 0 5.74 1.35l.72-.07a9.07 9.07 0 0 0 2.91-.8c.9-.41 1.66-.94 2.3-1.58a7.03 7.03 0 0 0 1.51-2.16c.36-.81.52-1.65.48-2.51l-.82.08a4.9 4.9 0 0 1-.44 2.24 6.38 6.38 0 0 1-1.33 1.93 7.2 7.2 0 0 1-2.06 1.41c-.8.38-1.68.61-2.6.71l-.72.08a7.94 7.94 0 0 1-5.16-1.22 6.08 6.08 0 0 1-1.72-1.72 4.95 4.95 0 0 1-.48-4.56c.3-.74.73-1.42 1.32-2.02a7.87 7.87 0 0 1 4.78-2.26l1.15-.12 1.01-.13c.34-.05.65-.1.9-.18"/><path d="M261.48 71.22c-.38 0-.76.02-1.14.06l-2.36.25a9.91 9.91 0 0 0-5.94 2.8 7.65 7.65 0 0 0-1.7 2.58 6.5 6.5 0 0 0-.42 3.1l.12 1.14 2.8-.3-.1-1.13c-.08-.66 0-1.27.24-1.86.25-.63.61-1.18 1.11-1.7a6.93 6.93 0 0 1 4.17-1.96l2.36-.25c.86-.09 1.68-.04 2.45.15a6.2 6.2 0 0 1 2.05.9c.57.39 1.05.87 1.42 1.43a3.93 3.93 0 0 1 .38 3.65c-.24.62-.6 1.2-1.09 1.7-.49.52-1.1.96-1.81 1.3-.72.35-1.51.57-2.37.66-1 .06-1.91.17-2.63.34s-1.3.34-1.78.52c-.53.2-1 .4-1.37.65-1.32.99-2.3 2.03-2.97 3.14a6.28 6.28 0 0 0-.85 4 6.51 6.51 0 0 0 1.06 2.93c.57.87 1.31 1.6 2.2 2.2a9.85 9.85 0 0 0 6.4 1.51l.71-.07c1.15-.13 2.24-.42 3.24-.89 1-.47 1.86-1.06 2.58-1.78a8.03 8.03 0 0 0 1.72-2.47c.42-.95.6-1.95.56-2.96l-.05-1.06-2.81.3.04.93c.02.62-.09 1.2-.35 1.79a5.4 5.4 0 0 1-1.13 1.63c-.48.48-1.08.9-1.78 1.22a7.2 7.2 0 0 1-2.28.61l-.72.08a7 7 0 0 1-4.5-1.05 5.1 5.1 0 0 1-1.44-1.44 3.93 3.93 0 0 1-.38-3.64c.24-.62.62-1.2 1.1-1.7a6.92 6.92 0 0 1 4.17-1.96l1.15-.12 1.05-.13a9.83 9.83 0 0 0 3.73-1.38 8.37 8.37 0 0 0 2.1-1.87c.58-.73 1-1.54 1.29-2.4a6.7 6.7 0 0 0-.75-5.7 7.49 7.49 0 0 0-2.2-2.2 9.58 9.58 0 0 0-5.28-1.55" fill="#231f20"/><path d="M307.94 98.24l1.4-15.78a9.65 9.65 0 0 0-.43-3.9 10.04 10.04 0 0 0-4.78-5.72c-1.15-.62-2.4-1-3.77-1.12a10 10 0 0 0-9.63 5.22 9.6 9.6 0 0 0-1.1 3.77l-1.41 15.77.68.07 1.4-15.78a9.31 9.31 0 0 1 6.37-7.96 8.96 8.96 0 0 1 3.63-.4c1.27.1 2.43.45 3.5 1.03a9.32 9.32 0 0 1 4.46 5.33c.38 1.15.52 2.36.4 3.63h-.03l-1.4 15.77z"/><path d="M299.43 70.68a11.05 11.05 0 0 0-9.58 5.78 10.6 10.6 0 0 0-1.22 4.16l-1.5 16.77 2.68.24 1.49-16.77a8.33 8.33 0 0 1 5.68-7.1 7.96 7.96 0 0 1 3.23-.36c1.12.1 2.17.4 3.12.92a8.37 8.37 0 0 1 3.98 4.76c.28.85.41 1.75.39 2.69l-.07.54-1.49 16.77 2.7.24 1.5-16.77c.13-1.5-.03-2.94-.48-4.3a11.08 11.08 0 0 0-5.26-6.3 10.69 10.69 0 0 0-5.17-1.27" fill="#231f20"/><path d="M332.52 103.17l5.62-25.12-.7-.16-24.08 19.74 5.35-23.93-.66-.15-5.62 25.12.67.15 24.08-19.77-5.36 23.96z"/><path d="M317.29 72.36l-6.06 27.07.67.15.52.11.93.21 22.22-18.24-4.94 22.1 2.65.6 6.06-27.07-.7-.16-.55-.12-.9-.2L314.97 95l4.94-22.07z" fill="#231f20"/><path d="M342.07 105.51l7.8-23.1 4.53 1.54.22-.65-9.73-3.28-.21.65 4.53 1.53-7.79 23.1-4.53-1.54-.22.65 9.72 3.28.22-.65z"/><path d="M344.27 78.75l-.86 2.55 4.54 1.53-7.15 21.2-4.54-1.54-.86 2.55 11.62 3.92.86-2.55-4.54-1.53 7.15-21.2 4.54 1.53.85-2.54z" fill="#231f20"/><path d="M351.2 109.1l19.68-18.26-1.35 26.75.63.29 1.4-27.72-.63-.28-20.34 18.94z"/><path d="M371.4 89l-.66-.31-21.93 20.42 2.59 1.19 18.36-17.05-1.26 24.96 2.58 1.2 1.5-29.87-.62-.29z" fill="#231f20"/><path d="M375.06 119.74l6.27-10.05 9.62 6.01.36-.58-9.61-6 6.27-10.05 13.16 8.22.36-.58-13.73-8.58-13.64 21.82 13.73 8.59.36-.58z"/><path d="M387.44 96.75l-14.7 23.52 15.43 9.65 1.42-2.28-13.16-8.22 5.22-8.35 9.62 6 1.42-2.27-9.61-6 5.21-8.35 13.16 8.22 1.42-2.28z" fill="#231f20"/><path d="M399.85 121.48l7.25 5.75c.64.5 1.14 1.1 1.5 1.78a6.1 6.1 0 0 1 .51 4.43 5.74 5.74 0 0 1-2.85 3.6 6.03 6.03 0 0 1-6.52-.53l-7.25-5.75zm1.8.56l18.82-1.08-.77-.6-18.8 1.08-.63-.5 7.78-9.81-.53-.43-16 20.17 7.8 6.17a6.43 6.43 0 0 0 4.86 1.38 6.9 6.9 0 0 0 2.4-.78 6.4 6.4 0 0 0 2.01-1.7 6.67 6.67 0 0 0 .62-7.25 6.44 6.44 0 0 0-1.69-2z"/><path d="M393.9 130.6l6.1-7.72 6.47 5.13c.53.42.95.91 1.24 1.47a5.13 5.13 0 0 1 .43 3.7 4.8 4.8 0 0 1-4.18 3.54c-.62.08-1.26.04-1.89-.13a4.6 4.6 0 0 1-1.71-.87zm13.45-21.3l-17.23 21.74 8.57 6.79a7.45 7.45 0 0 0 5.61 1.58 7.94 7.94 0 0 0 2.76-.89 7.45 7.45 0 0 0 2.32-1.95 7.45 7.45 0 0 0 1.6-5.59 7.67 7.67 0 0 0-2.84-5.07l-3.8-3.02 18.8-1.08-3.11-2.47-18.03 1.03 7.46-9.4z" fill="#231f20"/><path d="M425.23 143.33c.74.55 1.52.96 2.35 1.24.82.28 1.63.42 2.44.41.8 0 1.58-.16 2.32-.44a5.71 5.71 0 0 0 3.38-3.55c.29-.85.38-1.74.3-2.67a8.99 8.99 0 0 0-2.59-5.33l-1.68-1.68a8.79 8.79 0 0 0-5.3-2.58c-.92-.1-1.81-.01-2.68.26a5.5 5.5 0 0 0-2.27 1.37l-.1.1.59.59.1-.1a4.83 4.83 0 0 1 2.01-1.22 6.12 6.12 0 0 1 2.4-.24 7.91 7.91 0 0 1 4.76 2.3l1.68 1.68c.7.7 1.23 1.46 1.62 2.3.39.83.61 1.66.68 2.49.06.83-.03 1.63-.27 2.39a4.95 4.95 0 0 1-3.25 3.24c-.77.24-1.57.33-2.4.26a7.25 7.25 0 0 1-2.5-.69 8.1 8.1 0 0 1-2.28-1.63 15.05 15.05 0 0 0-1.82-1.75c-.54-.43-1-.75-1.4-.97a5.86 5.86 0 0 0-1.19-.59c-1.4-.36-2.69-.46-3.85-.3a5.3 5.3 0 0 0-3.07 1.56c-.65.65-1.1 1.4-1.38 2.27a6.8 6.8 0 0 0-.29 2.7 8.92 8.92 0 0 0 2.55 5.32l.5.5a9.07 9.07 0 0 0 2.46 1.77c.89.43 1.78.7 2.68.8.9.1 1.77.04 2.63-.19.86-.22 1.6-.63 2.26-1.2l-.6-.59a4.9 4.9 0 0 1-2 1.07 6.4 6.4 0 0 1-2.35.17c-.8-.09-1.59-.33-2.39-.72-.8-.4-1.52-.92-2.18-1.58l-.51-.51a7.94 7.94 0 0 1-2.3-4.78c-.07-.84.02-1.65.27-2.42a4.92 4.92 0 0 1 3.25-3.24 6.15 6.15 0 0 1 2.4-.24 7.92 7.92 0 0 1 4.76 2.3l.81.82.74.72c.25.24.49.43.7.58"/><path d="M425.74 127.69c-.77 0-1.53.11-2.27.34a6.5 6.5 0 0 0-2.67 1.62l-.81.8 2 2.01.8-.8c.47-.47 1-.79 1.6-.98.65-.2 1.33-.26 2.02-.2a6.94 6.94 0 0 1 4.14 2.02l1.68 1.68a7.06 7.06 0 0 1 1.42 2c.34.73.53 1.45.59 2.15.06.72-.02 1.38-.22 2.02-.2.61-.51 1.13-.98 1.6-.47.46-1 .79-1.62.98-.65.2-1.33.28-2.02.22a6.3 6.3 0 0 1-2.15-.6 7.1 7.1 0 0 1-2-1.42c-.69-.77-1.33-1.38-1.92-1.84a12.28 12.28 0 0 0-2.88-1.72 11.05 11.05 0 0 0-4.3-.34c-1.38.2-2.6.81-3.64 1.85a6.48 6.48 0 0 0-1.63 2.67 7.82 7.82 0 0 0-.33 3.08c.09 1.04.38 2.1.85 3.12a9.94 9.94 0 0 0 1.98 2.81l.51.51c.82.82 1.73 1.48 2.72 1.97.99.48 2 .78 3 .9 1.02.11 2.03.04 3-.22 1.01-.27 1.9-.75 2.67-1.42l.8-.7-2-2-.71.61c-.47.4-1 .69-1.6.85a5.49 5.49 0 0 1-4.04-.48 7.24 7.24 0 0 1-1.92-1.39l-.51-.5a6.96 6.96 0 0 1-2-4.17c-.07-.7 0-1.38.2-2.02a3.9 3.9 0 0 1 1-1.62c.47-.46.99-.78 1.6-.97a5.1 5.1 0 0 1 2.02-.2c.72.07 1.45.27 2.16.6.7.33 1.38.8 1.99 1.42l.8.81.76.74a9.74 9.74 0 0 0 3.42 2.04 7.76 7.76 0 0 0 5.45-.04 6.71 6.71 0 0 0 3.98-4.17c.32-1 .43-2.03.33-3.09a10.02 10.02 0 0 0-2.88-5.94l-1.67-1.67a9.84 9.84 0 0 0-6.72-2.92" fill="#231f20"/><path d="M426.86 162.87l18.8-15.52 3.05 3.7.52-.44-6.53-7.91-.53.43 3.05 3.7-18.8 15.52-3.04-3.7-.53.44 6.53 7.9.53-.43z"/><path d="M442.83 141.3l-2.07 1.7 3.05 3.69-17.25 14.25-3.05-3.7-2.07 1.71 7.81 9.46 2.07-1.71-3.05-3.7 17.25-14.24 3.05 3.7 2.07-1.72z" fill="#231f20"/><path d="M443.23 185.21l-5.08-7.42 20.67-14.16-.38-.56-20.68 14.15-5.06-7.4-.57.4 10.54 15.38z"/><path d="M458.7 161.68l-20.68 14.15-5.06-7.4-2.21 1.52L442.4 187l2.21-1.52-5.08-7.42 20.68-14.16z" fill="#231f20"/><path d="M445.9 189.68l10.54-5.43 5.2 10.09.6-.32-5.2-10.08 10.53-5.42 7.1 13.8.62-.32-7.42-14.4-22.88 11.78 7.41 14.4.61-.3z"/><path d="M468.3 176.25l-24.66 12.7 8.33 16.18 2.4-1.23-7.12-13.8 8.76-4.5 5.19 10.08 2.38-1.23-5.19-10.08 8.75-4.5 7.1 13.79 2.4-1.23z" fill="#231f20"/><path d="M461.63 224.92l-3.15-8.42 23.46-8.8-.24-.63-23.46 8.79-3.15-8.4-.64.24 6.54 17.46z"/><path d="M482.29 205.78l-23.47 8.79-3.14-8.4-2.52.95 7.25 19.33 2.51-.94-3.16-8.43 23.47-8.79z" fill="#231f20"/></g></svg>